<svg xmlns="http://www.w3.org/2000/svg" width="47.4mm" height="19.3mm" viewBox="0 0 134.3 54.7">
  <title>logo</title>
  <g>
    <polygon points="39.8 15 24.9 35.8 64.9 35.8 80.3 24.4 39.8 15" style="fill: #0d72a1"/>
    <polygon points="102.5 53.6 80.5 24.2 39.6 14.9 60.7 53.6 102.5 53.6" style="fill: #71b8d6"/>
    <polygon points="119.5 53.6 134.3 16.4 82.7 0 60.7 53.6 119.5 53.6" style="fill: #0f7eb5"/>
    <polygon points="94.1 14.2 90 14.2 90 21 94.1 21 94.1 14.2" style="fill: #fff"/>
    <polygon points="101.7 14.2 97.6 14.2 97.6 21 101.7 21 101.7 14.2" style="fill: #fff"/>
    <polygon points="109.2 14.2 105.1 14.2 105.1 21 109.2 21 109.2 14.2" style="fill: #fff"/>
    <polygon points="86.5 21 86.5 14.2 82.4 14.2 82.4 21 86.5 21" style="fill: #fff"/>
    <polygon points="86.5 32.4 86.5 25.6 82.4 25.6 82.4 32.4 86.5 32.4" style="fill: #fff"/>
    <polygon points="109.2 40.5 109.2 24.3 97.6 24.3 97.6 40.5 109.2 40.5" style="fill: #fff"/>
    <polygon points="88.3 52.8 88.3 35.8 80.7 35.8 80.7 52.8 88.3 52.8" style="fill: #fff"/>
    <g>
      <path d="M5.4,35.7l-1,.2a1.6,1.6,0,0,1-1.8-1.4V34.2a1.8,1.8,0,0,1,1.8-1.8h1v0.4H4.5A1.3,1.3,0,0,0,3.1,34v0.2a1.3,1.3,0,0,0,1.2,1.4H5.4v0Z" style="fill: #71b8d6"/>
      <path d="M6.5,32.4v1.5H6.6l1.3-1.5H8.4L7,34a1.2,1.2,0,0,1,1,.9l0.4,1H8L7.6,35a1,1,0,0,0-1-.7H6.5v1.5H6V32.4H6.5Z" style="fill: #71b8d6"/>
    </g>
    <path d="M2.9,45.5L2.3,47.9H0.4l2.5-9.4H5.4L8,47.9H6L5.3,45.5H2.9ZM5,43.9l-0.5-2L4.1,40.1h0L3.7,41.9l-0.5,2H5Z" style="fill: #0f7eb5"/>
    <path d="M15.4,38.5v9.4H13.6V40.2H11.7v2.2c0,2.4-.3,4.3-1.5,5.1a3,3,0,0,1-1.6.5L8.3,46.3a1.6,1.6,0,0,0,.9-0.5,5.9,5.9,0,0,0,.6-3.2V38.5h5.6Z" style="fill: #0f7eb5"/>
    <path d="M18.9,38.5v3.3h1a3,3,0,0,1,3.3,2.7v0.4a3.1,3.1,0,0,1-.7,2.1,4.6,4.6,0,0,1-3.4,1h-2V38.5h1.8Zm0,7.9h0.7A1.5,1.5,0,0,0,21.2,45V44.8a1.4,1.4,0,0,0-1.3-1.5h-1v3h0Z" style="fill: #0f7eb5"/>
    <path d="M24.9,40.3H22.7V38.5H29v1.8H26.8v7.6H24.9V40.3Z" style="fill: #0f7eb5"/>
    <path d="M39.7,38.5v3.9h0.2l2.3-3.9h2.3l-2.9,4.2A2.8,2.8,0,0,1,43.4,45c0.3,1,.6,2,1,3h-2l-0.6-2.1c-0.3-1.1-.7-1.9-1.7-1.9H39.7v4H37.8V38.5h1.9Z" style="fill: #0f7eb5"/>
    <path d="M51.1,47.7a5.2,5.2,0,0,1-2.1.4c-2.8,0-4.3-2-4.3-4.7a4.8,4.8,0,0,1,4.5-5,4.5,4.5,0,0,1,2,.4l-0.4,1.7a4.5,4.5,0,0,0-1.6-.3c-1.5,0-2.6,1-2.6,3.1s1,3.1,2.6,3.1a4.5,4.5,0,0,0,1.6-.3Z" style="fill: #0f7eb5"/>
    <g>
      <path d="M23.7,53.6l-0.4,1.1H22.9L24,51.3h0.5l1.2,3.3H25.2l-0.4-1.1H23.7Zm1.1-.3-0.3-1-0.2-.6h0l-0.2.6-0.3,1h1Z" style="fill: #71b8d6"/>
      <path d="M28.6,51.2v3.4H28.1v-3H27v1a2.5,2.5,0,0,1-.5,1.9l-0.5.2V54.3l0.4-.2a2.1,2.1,0,0,0,.3-1.5V51.2h1.9Z" style="fill: #71b8d6"/>
      <path d="M29.8,51.2v1.5h0.5a1.5,1.5,0,0,1,1.4-1.5,1.5,1.5,0,0,1,1.4,1.6h0a1.6,1.6,0,0,1-1.2,1.8H31.7a1.5,1.5,0,0,1-1.4-1.6H29.8v1.6H29.3V51.2h0.5Zm2.9,1.7a1.2,1.2,0,0,0-1-1.4h0a1.5,1.5,0,0,0-.9,1.9,2,2,0,0,0,.9.9,1.2,1.2,0,0,0,1-1.4h0Z" style="fill: #71b8d6"/>
      <path d="M36.5,53.1a7.5,7.5,0,0,1,0-1.5h0L36,53l-0.6,1.6H35.1L34.5,53l-0.4-1.3h0a8.1,8.1,0,0,1-.1,1.5v1.4H33.6l0.2-3.4h0.6L35,52.8,35.3,54h0l0.4-1.1,0.6-1.6h0.6l0.2,3.4H36.6V53.1h0Z" style="fill: #71b8d6"/>
      <path d="M38.1,51.2V54h0l0.6-1,1.1-1.7h0.4v3.4H39.8V51.8h0l-0.6,1.1-1.1,1.7H37.7V51.2h0.4Z" style="fill: #71b8d6"/>
      <path d="M41.4,51.2v1.4H43V51.2h0.4v3.4H43V53H41.4v1.6H41V51.2h0.4Z" style="fill: #71b8d6"/>
      <path d="M44.6,51.2V54h0l0.6-1,1.1-1.7h0.4v3.4H46.3V51.8h0l-0.6,1.1-1,1.7H44.2V51.2h0.4Z" style="fill: #71b8d6"/>
      <path d="M47.9,51.2V54h0l0.6-1,1.1-1.7H50v3.4H49.6V51.8h0L49,52.9l-1.1,1.7H47.5V51.2h0.4Zm0.6-.7a0.3,0.3,0,1,0,.6,0h0.3a0.6,0.6,0,0,1-.7.5h0a0.5,0.5,0,0,1-.6-0.4h0.4Z" style="fill: #71b8d6"/>
    </g>
    <path d="M30.2,38.8a5.2,5.2,0,0,1,2.1-.4c2.8,0,4.3,2,4.3,4.7a4.8,4.8,0,0,1-4.5,5,4.5,4.5,0,0,1-2-.4V45.9a4.8,4.8,0,0,0,2,.4c1.5,0,2.6-1,2.6-3.1s-1-3.1-2.6-3.1a6.5,6.5,0,0,0-1.9.4V38.8Z" style="fill: #0f7eb5"/>
    <rect x="31.2" y="42.3" width="4.1" height="1.8" style="fill: #0f7eb5"/>
  </g>
</svg>
