<svg xmlns="http://www.w3.org/2000/svg" width="11.3mm" height="11.3mm" viewBox="0 0 32 32">
  <title>team</title>
  <g>
    <path d="M16.3,14.9a5.5,5.5,0,1,0-5.5-5.5A5.5,5.5,0,0,0,16.3,14.9Zm0-8.9a3.5,3.5,0,1,1-3.5,3.5A3.5,3.5,0,0,1,16.3,6Z"/>
    <path d="M25.6,12.8a3.4,3.4,0,1,0-3.4-3.4A3.4,3.4,0,0,0,25.6,12.8Zm0-4.9a1.4,1.4,0,1,1-1.4,1.4A1.4,1.4,0,0,1,25.6,8Z"/>
    <polygon points="20.6 14 20.6 17.2 11.9 17.2 11.9 14 1.9 14 1.9 20.3 3.9 20.3 3.9 16 9.9 16 9.9 17.2 7.9 17.2 7.9 28 9.9 28 9.9 19.2 22.5 19.2 22.5 28 24.5 28 24.5 17.2 22.6 17.2 22.6 16 28.6 16 28.6 20.3 30.6 20.3 30.6 14 20.6 14"/>
    <path d="M6.9,12.9A3.4,3.4,0,1,0,3.5,9.5,3.4,3.4,0,0,0,6.9,12.9ZM6.9,8A1.4,1.4,0,1,1,5.5,9.5,1.4,1.4,0,0,1,6.9,8Z"/>
  </g>
</svg>
